# xmcd CD database file
#
# Track frame offsets:
#	150
#	15487
#	31350
#	48249
#	64581
#	76648
#	91056
#	106135
#	118640
#	136178
#	149242
#	162722
#
# Disc length: 2496 seconds
#
# Revision: 0
# Processed by: cddbd v1.5.2PL0 Copyright (c) Steve Scherf et al.
# Submitted via: CDex 1.70beta2
#
DISCID=9509be0c
DTITLE=Mr. David Viner - Among The Rumours And The Rye
DYEAR=2008
DGENRE=Blues
TTITLE0=Do what thou wilt
TTITLE1=Lavender
TTITLE2=Go home
TTITLE3=Dig a hole
TTITLE4=I've got mine (You'll get yours)
TTITLE5=From the levees' peak
TTITLE6=Get through this
TTITLE7=Won't cry again
TTITLE8=Thron in my side
TTITLE9=Old black crow
TTITLE10=Among the rumours and the rye
TTITLE11=Bow your head
EXTD=YEAR: 2008
EXTT0=
EXTT1=
EXTT2=
EXTT3=
EXTT4=
EXTT5=
EXTT6=
EXTT7=
EXTT8=
EXTT9=
EXTT10=
EXTT11=
PLAYORDER=
